# xmcd
#
# Track frame offsets: 
#        150
#        18795
#        38827
#        57230
#        75005
#        98090
#        115677
#        134490
#        152260
#        170110
#        190505
#        209995
#
# Disc length: 3051 seconds
#
# Revision: 0
# Processed by: cddbd v1.5.1PL2 Copyright (c) Steve Scherf et al.
# Submitted via: ExactAudioCopy v0.95b4
#
DISCID=8f0be90c
DTITLE=SECHSKIES - Blue Note
DYEAR=2000
DGENRE=Ballad
TTITLE0=Bye...
TTITLE1=약속
TTITLE2=The last time
TTITLE3=Pain
TTITLE4=Walking in the rain
TTITLE5=너를 보내며
TTITLE6=커플 (Couple)
TTITLE7=사랑하는 너에게
TTITLE8=예감 (豫感)
TTITLE9=내겐 보일 수 없었던 세상
TTITLE10=SAY
TTITLE11=하얀밤에
EXTD=
EXTT0=
EXTT1=
EXTT2=
EXTT3=
EXTT4=
EXTT5=
EXTT6=
EXTT7=
EXTT8=
EXTT9=
EXTT10=
EXTT11=
PLAYORDER=
